<?xml version="1.0" encoding="utf-8"?>
<!-- Generator: Adobe Illustrator 25.0.0, SVG Export Plug-In . SVG Version: 6.00 Build 0)  -->
<svg version="1.1" id="Layer_3" xmlns="http://www.w3.org/2000/svg" xmlns:xlink="http://www.w3.org/1999/xlink" x="0px" y="0px"
	 viewBox="0 0 1200 800" style="enable-background:new 0 0 1200 800;" xml:space="preserve">
<style type="text/css">
	.st0{fill:none;}
	.st1{fill-rule:evenodd;clip-rule:evenodd;fill:url(#SVGID_1_);}
	.st2{fill:url(#SVGID_2_);}
	.st3{fill:url(#SVGID_3_);}
	.st4{fill:url(#SVGID_4_);}
	.st5{fill:url(#SVGID_5_);}
	.st6{fill:url(#SVGID_6_);}
	.st7{fill:url(#SVGID_7_);}
	.st8{fill:url(#SVGID_8_);}
	.st9{fill:url(#SVGID_9_);}
	.st10{fill:url(#SVGID_10_);}
	.st11{fill:url(#SVGID_11_);}
	.st12{fill:url(#SVGID_12_);}
	.st13{fill:url(#SVGID_13_);}
	.st14{fill:url(#SVGID_14_);}
	.st15{fill:url(#SVGID_15_);}
	.st16{fill:url(#SVGID_16_);}
	.st17{fill:url(#SVGID_17_);}
	.st18{fill:url(#SVGID_18_);}
	.st19{fill:url(#SVGID_19_);}
	.st20{fill:url(#SVGID_20_);}
	.st21{fill:url(#SVGID_21_);}
	.st22{fill:url(#SVGID_22_);}
	.st23{fill:url(#SVGID_23_);}
	.st24{fill:url(#SVGID_24_);}
	.st25{fill:url(#SVGID_25_);}
	.st26{fill:url(#SVGID_26_);}
	.st27{fill:url(#SVGID_27_);}
	.st28{fill:url(#SVGID_28_);}
	.st29{fill:url(#SVGID_29_);}
	.st30{fill:url(#SVGID_30_);}
	.st31{fill:url(#SVGID_31_);}
	.st32{fill:url(#SVGID_32_);}
	.st33{fill:url(#SVGID_33_);}
	.st34{fill:url(#SVGID_34_);}
	.st35{fill:url(#SVGID_35_);}
	.st36{fill:url(#SVGID_36_);}
	.st37{fill:url(#SVGID_37_);}
	.st38{fill:url(#SVGID_38_);}
	.st39{fill:url(#SVGID_39_);}
	.st40{fill:url(#SVGID_40_);}
	.st41{fill:url(#SVGID_41_);}
	.st42{fill:url(#SVGID_42_);}
	.st43{fill:url(#SVGID_43_);}
	.st44{fill:url(#SVGID_44_);}
	.st45{fill:url(#SVGID_45_);}
	.st46{fill:url(#SVGID_46_);}
	.st47{fill:url(#SVGID_47_);}
	.st48{fill:url(#SVGID_48_);}
	.st49{fill:url(#SVGID_49_);}
	.st50{fill:url(#SVGID_50_);}
	.st51{fill:url(#SVGID_51_);}
	.st52{fill:url(#SVGID_52_);}
	.st53{fill:url(#SVGID_53_);}
	.st54{fill:url(#SVGID_54_);}
	.st55{fill:url(#SVGID_55_);}
</style>
<rect class="st0" width="1200" height="800"/>
<linearGradient id="SVGID_1_" gradientUnits="userSpaceOnUse" x1="54.8491" y1="684.4828" x2="1228.9816" y2="71.773">
	<stop  offset="0" style="stop-color:#5FBB53"/>
	<stop  offset="1" style="stop-color:#3D90CE"/>
</linearGradient>
<path class="st1" d="M600,314.9c-19.3,0-37.1,6.4-51.3,17.1l-1.1,0.8c-6.7,5.2-12.5,11.4-17.4,18.3c-1.4,2-2.8,4.1-4,6.3l-12.3-7.1
	c1.4-2.5,3-4.9,4.7-7.3c4.3-6.1,9.2-11.6,14.6-16.6c-3.2-2.8-6.6-6.5-9.8-10.7c-9.6-12.5-13.9-25.1-9.8-28.3
	c4.2-3.2,15.2,4.3,24.8,16.8c3.2,4.2,5.8,8.4,7.7,12.2c13.4-8.6,28.9-14.1,45.7-15.4c-0.8-4.2-1.3-9.2-1.3-14.5
	c0-15.7,4.2-28.4,9.5-28.4s9.5,12.7,9.5,28.4c0,5.3-0.5,10.3-1.3,14.5c16.8,1.3,32.3,6.8,45.7,15.4c1.9-3.9,4.5-8.1,7.7-12.2
	c9.6-12.5,20.6-19.9,24.8-16.8c4.2,3.2-0.2,15.8-9.8,28.3c-3.2,4.2-6.6,7.8-9.8,10.7c5.5,5,10.4,10.5,14.6,16.6
	c1.7,2.4,3.2,4.8,4.7,7.3l-12.3,7.1c-1.2-2.1-2.6-4.2-4-6.3c-4.9-7-10.7-13.1-17.4-18.3l-1.1-0.8C637.1,321.2,619.3,314.9,600,314.9
	z M518.6,457c4.3,6.1,9.2,11.6,14.6,16.6c-3.2,2.8-6.6,6.5-9.8,10.7c-9.6,12.5-13.9,25.1-9.8,28.3c4.2,3.2,15.2-4.3,24.8-16.8
	c3.2-4.2,5.8-8.4,7.7-12.2c13.4,8.6,28.9,14.1,45.7,15.4c-0.8,4.2-1.3,9.2-1.3,14.5c0,15.7,4.2,28.4,9.5,28.4s9.5-12.7,9.5-28.4
	c0-5.3-0.5-10.3-1.3-14.5c16.8-1.3,32.3-6.8,45.7-15.4c1.9,3.9,4.5,8.1,7.7,12.2c9.6,12.5,20.6,19.9,24.8,16.8
	c4.2-3.2-0.2-15.8-9.8-28.3c-3.2-4.2-6.6-7.8-9.8-10.7c5.5-5,10.4-10.5,14.6-16.6l-11.6-8.1c-15.9,22.8-42,36.3-69.8,36.3
	c-27.8,0.1-53.9-13.5-69.8-36.2L518.6,457z M681.3,437.8v-22.7l-3.8-26.5l17,43.5h9.5l17-43.5l-3.8,26.5v22.7h17V366h-18.9
	l-15.1,43.5L685.1,366h-20.8v71.9H681.3z M622.7,366v56.7h28.4v15.1h-47.3V366H622.7z M588.7,366v15.1h-28.4v13.2h24.6v15.1h-24.6
	v13.2h30.3v15.1h-49.2V366H588.7z M465.7,437.8V366h18.9v26.5h22.7V366h18.9v71.9h-18.9v-28.4h-22.7v28.4H465.7z"/>
<g>
	<g>
		<linearGradient id="SVGID_2_" gradientUnits="userSpaceOnUse" x1="626.5262" y1="340.4381" x2="743.4021" y2="263.8642">
			<stop  offset="0" style="stop-color:#5FBB53"/>
			<stop  offset="1" style="stop-color:#3D90CE"/>
		</linearGradient>
		<path class="st2" d="M685,302.1C685,302.1,685,302.1,685,302.1C685,302.2,685,302.2,685,302.1C685,302.1,685,302.1,685,302.1z"/>
	</g>
	<g>
		<linearGradient id="SVGID_3_" gradientUnits="userSpaceOnUse" x1="160.4022" y1="546.1863" x2="953.5765" y2="26.5204">
			<stop  offset="0" style="stop-color:#5FBB53"/>
			<stop  offset="1" style="stop-color:#3D90CE"/>
		</linearGradient>
		<path class="st3" d="M599.9,258.1C599.9,258.2,599.9,258.2,599.9,258.1c0,0.1,0.1,0.1,0.1,0.1s0,0,0-0.1
			C600.1,258.1,600.1,258.1,599.9,258.1C599.9,258.1,599.9,258.1,599.9,258.1z"/>
	</g>
	<g>
		<linearGradient id="SVGID_4_" gradientUnits="userSpaceOnUse" x1="-65.3092" y1="552.3978" x2="991.4859" y2="-139.9851">
			<stop  offset="0" style="stop-color:#5FBB53"/>
			<stop  offset="1" style="stop-color:#3D90CE"/>
		</linearGradient>
		<path class="st4" d="M363.4,290.6c6.4,3.2,16.9,3.2,23.3,0l41.8-20.9c6.4-3.2,6.4-8.4,0-11.6l-41.8-20.9c-6.4-3.2-16.9-3.2-23.3,0
			l-41.8,20.9c-6.4,3.2-6.4,8.4,0,11.6L363.4,290.6z"/>
	</g>
	<g>
		<linearGradient id="SVGID_5_" gradientUnits="userSpaceOnUse" x1="-0.7685" y1="665.1127" x2="1056.0266" y2="-27.2703">
			<stop  offset="0" style="stop-color:#5FBB53"/>
			<stop  offset="1" style="stop-color:#3D90CE"/>
		</linearGradient>
		<path class="st5" d="M321.6,413.1c-6.4,3.2-6.4,8.4,0,11.6l41.8,20.9c6.4,3.2,16.9,3.2,23.3,0l41.8-20.9c6.4-3.2,6.4-8.4,0-11.6
			l-41.8-20.9c-6.4-3.2-16.9-3.2-23.3,0L321.6,413.1z"/>
	</g>
	<g>
		<linearGradient id="SVGID_6_" gradientUnits="userSpaceOnUse" x1="142.1913" y1="799.2202" x2="1198.9865" y2="106.8372">
			<stop  offset="0" style="stop-color:#5FBB53"/>
			<stop  offset="1" style="stop-color:#3D90CE"/>
		</linearGradient>
		<path class="st6" d="M846.6,296.9c-6.4,3.2-6.4,8.4,0,11.6l41.8,20.9c6.4,3.2,16.9,3.2,23.3,0l41.8-20.9c6.4-3.2,6.4-8.4,0-11.6
			L911.6,276c-6.4-3.2-16.9-3.2-23.3,0L846.6,296.9z"/>
	</g>
	<g>
		<linearGradient id="SVGID_7_" gradientUnits="userSpaceOnUse" x1="153.3786" y1="802.2493" x2="1210.1737" y2="109.8664">
			<stop  offset="0" style="stop-color:#5FBB53"/>
			<stop  offset="1" style="stop-color:#3D90CE"/>
		</linearGradient>
		<path class="st7" d="M963.4,290.6c6.4,3.2,16.9,3.2,23.3,0l41.8-20.9c6.4-3.2,6.4-8.4,0-11.6l-41.8-20.9c-6.4-3.2-16.9-3.2-23.3,0
			l-41.8,20.9c-6.4,3.2-6.4,8.4,0,11.6L963.4,290.6z"/>
	</g>
	<g>
		<linearGradient id="SVGID_8_" gradientUnits="userSpaceOnUse" x1="110.1291" y1="743.2264" x2="1166.9242" y2="50.8434">
			<stop  offset="0" style="stop-color:#5FBB53"/>
			<stop  offset="1" style="stop-color:#3D90CE"/>
		</linearGradient>
		<path class="st8" d="M953.4,231.5c6.4-3.2,6.4-8.4,0-11.6L911.6,199c-6.4-3.2-16.9-3.2-23.3,0l-41.8,20.9c-6.4,3.2-6.4,8.4,0,11.6
			l41.8,20.9c6.4,3.2,16.9,3.2,23.3,0L953.4,231.5z"/>
	</g>
	<g>
		<linearGradient id="SVGID_9_" gradientUnits="userSpaceOnUse" x1="217.9193" y1="914.9642" x2="1274.7144" y2="222.5812">
			<stop  offset="0" style="stop-color:#5FBB53"/>
			<stop  offset="1" style="stop-color:#3D90CE"/>
		</linearGradient>
		<path class="st9" d="M963.4,445.6c6.4,3.2,16.9,3.2,23.3,0l41.8-20.9c6.4-3.2,6.4-8.4,0-11.6l-41.8-20.9c-6.4-3.2-16.9-3.2-23.3,0
			l-41.8,20.9c-6.4,3.2-6.4,8.4,0,11.6L963.4,445.6z"/>
	</g>
	<g>
		<linearGradient id="SVGID_10_" gradientUnits="userSpaceOnUse" x1="176.2236" y1="809.1292" x2="1233.0187" y2="116.7462">
			<stop  offset="0" style="stop-color:#5FBB53"/>
			<stop  offset="1" style="stop-color:#3D90CE"/>
		</linearGradient>
		<path class="st10" d="M1178.5,193.3c6.4-3.2,6.4-8.4,0-11.6l-41.8-20.9c-6.4-3.2-16.9-3.2-23.3,0l-41.8,20.9
			c-6.4,3.2-6.4,8.4,0,11.6l41.8,20.9c6.4,3.2,16.9,3.2,23.3,0L1178.5,193.3z"/>
	</g>
	<g>
		<linearGradient id="SVGID_11_" gradientUnits="userSpaceOnUse" x1="196.8632" y1="861.6831" x2="1253.6583" y2="169.3001">
			<stop  offset="0" style="stop-color:#5FBB53"/>
			<stop  offset="1" style="stop-color:#3D90CE"/>
		</linearGradient>
		<path class="st11" d="M1038.4,329.4c6.4,3.2,16.9,3.2,23.3,0l41.8-20.9c6.4-3.2,6.4-8.4,0-11.6l-41.8-20.9
			c-6.4-3.2-16.9-3.2-23.3,0l-41.8,20.9c-6.4,3.2-6.4,8.4,0,11.6L1038.4,329.4z"/>
	</g>
	<g>
		<linearGradient id="SVGID_12_" gradientUnits="userSpaceOnUse" x1="98.7066" y1="739.7865" x2="1155.5017" y2="47.4035">
			<stop  offset="0" style="stop-color:#5FBB53"/>
			<stop  offset="1" style="stop-color:#3D90CE"/>
		</linearGradient>
		<path class="st12" d="M878.4,269.7c6.4-3.2,6.4-8.4,0-11.6l-41.8-20.9c-6.4-3.2-16.9-3.2-23.3,0l-41.8,20.9
			c-6.4,3.2-6.4,8.4,0,11.6l41.8,20.9c6.4,3.2,16.9,3.2,23.3,0L878.4,269.7z"/>
	</g>
	<g>
		<linearGradient id="SVGID_13_" gradientUnits="userSpaceOnUse" x1="173.2783" y1="903.0288" x2="1230.0735" y2="210.6458">
			<stop  offset="0" style="stop-color:#5FBB53"/>
			<stop  offset="1" style="stop-color:#3D90CE"/>
		</linearGradient>
		<path class="st13" d="M621.6,568.5c-6.4,3.2-6.4,8.4,0,11.6l41.8,20.9c6.4,3.2,16.9,3.2,23.3,0l41.8-20.9c6.4-3.2,6.4-8.4,0-11.6
			l-41.8-20.9c-6.4-3.2-16.9-3.2-23.3,0L621.6,568.5z"/>
	</g>
	<g>
		<linearGradient id="SVGID_14_" gradientUnits="userSpaceOnUse" x1="195.7259" y1="909.2223" x2="1252.521" y2="216.8393">
			<stop  offset="0" style="stop-color:#5FBB53"/>
			<stop  offset="1" style="stop-color:#3D90CE"/>
		</linearGradient>
		<path class="st14" d="M878.4,502.7c6.4-3.2,6.4-8.4,0-11.6l-41.8-20.9c-6.4-3.2-16.9-3.2-23.3,0l-41.8,20.9
			c-6.4,3.2-6.4,8.4,0,11.6l41.8,20.9c6.4,3.2,16.9,3.2,23.3,0L878.4,502.7z"/>
	</g>
	<g>
		<linearGradient id="SVGID_15_" gradientUnits="userSpaceOnUse" x1="227.9503" y1="965.4917" x2="1284.7454" y2="273.1087">
			<stop  offset="0" style="stop-color:#5FBB53"/>
			<stop  offset="1" style="stop-color:#3D90CE"/>
		</linearGradient>
		<path class="st15" d="M771.6,568.5c-6.4,3.2-6.4,8.4,0,11.6l41.8,20.9c6.4,3.2,16.9,3.2,23.3,0l41.8-20.9c6.4-3.2,6.4-8.4,0-11.6
			l-41.8-20.9c-6.4-3.2-16.9-3.2-23.3,0L771.6,568.5z"/>
	</g>
	<g>
		<linearGradient id="SVGID_16_" gradientUnits="userSpaceOnUse" x1="118.6064" y1="840.5659" x2="1175.4015" y2="148.1829">
			<stop  offset="0" style="stop-color:#5FBB53"/>
			<stop  offset="1" style="stop-color:#3D90CE"/>
		</linearGradient>
		<path class="st16" d="M471.6,568.5c-6.4,3.2-6.4,8.4,0,11.6l41.8,20.9c6.4,3.2,16.9,3.2,23.3,0l41.8-20.9c6.4-3.2,6.4-8.4,0-11.6
			l-41.8-20.9c-6.4-3.2-16.9-3.2-23.3,0L471.6,568.5z"/>
	</g>
	<g>
		<linearGradient id="SVGID_17_" gradientUnits="userSpaceOnUse" x1="174.6698" y1="855.9412" x2="1231.465" y2="163.5582">
			<stop  offset="0" style="stop-color:#5FBB53"/>
			<stop  offset="1" style="stop-color:#3D90CE"/>
		</linearGradient>
		<path class="st17" d="M911.6,354c-6.4-3.2-16.9-3.2-23.3,0l-41.8,20.9c-6.4,3.2-6.4,8.4,0,11.6l41.8,20.9c6.4,3.2,16.9,3.2,23.3,0
			l41.8-20.9c6.4-3.2,6.4-8.4,0-11.6L911.6,354z"/>
	</g>
	<g>
		<linearGradient id="SVGID_18_" gradientUnits="userSpaceOnUse" x1="273.2428" y1="978.5649" x2="1330.038" y2="286.182">
			<stop  offset="0" style="stop-color:#5FBB53"/>
			<stop  offset="1" style="stop-color:#3D90CE"/>
		</linearGradient>
		<path class="st18" d="M1071.6,414.7c-6.4,3.2-6.4,8.4,0,11.6l41.8,20.9c6.4,3.2,16.9,3.2,23.3,0l41.8-20.9c6.4-3.2,6.4-8.4,0-11.6
			l-41.8-20.9c-6.4-3.2-16.9-3.2-23.3,0L1071.6,414.7z"/>
	</g>
	<g>
		<linearGradient id="SVGID_19_" gradientUnits="userSpaceOnUse" x1="-108.5586" y1="493.3749" x2="948.2365" y2="-199.0081">
			<stop  offset="0" style="stop-color:#5FBB53"/>
			<stop  offset="1" style="stop-color:#3D90CE"/>
		</linearGradient>
		<path class="st19" d="M353.4,231.5c6.4-3.2,6.4-8.4,0-11.6L311.6,199c-6.4-3.2-16.9-3.2-23.3,0l-41.8,20.9
			c-6.4,3.2-6.4,8.4,0,11.6l41.8,20.9c6.4,3.2,16.9,3.2,23.3,0L353.4,231.5z"/>
	</g>
	<g>
		<linearGradient id="SVGID_20_" gradientUnits="userSpaceOnUse" x1="282.6222" y1="1027.9546" x2="1339.4174" y2="335.5715">
			<stop  offset="0" style="stop-color:#5FBB53"/>
			<stop  offset="1" style="stop-color:#3D90CE"/>
		</linearGradient>
		<path class="st20" d="M921.6,568.5c-6.4,3.2-6.4,8.4,0,11.6l41.8,20.9c6.4,3.2,16.9,3.2,23.3,0l41.8-20.9c6.4-3.2,6.4-8.4,0-11.6
			l-41.8-20.9c-6.4-3.2-16.9-3.2-23.3,0L921.6,568.5z"/>
	</g>
	<g>
		<linearGradient id="SVGID_21_" gradientUnits="userSpaceOnUse" x1="250.3979" y1="971.6852" x2="1307.193" y2="279.3022">
			<stop  offset="0" style="stop-color:#5FBB53"/>
			<stop  offset="1" style="stop-color:#3D90CE"/>
		</linearGradient>
		<path class="st21" d="M1028.5,502.7c6.4-3.2,6.4-8.4,0-11.6l-41.8-20.9c-6.4-3.2-16.9-3.2-23.3,0l-41.8,20.9
			c-6.4,3.2-6.4,8.4,0,11.6l41.8,20.9c6.4,3.2,16.9,3.2,23.3,0L1028.5,502.7z"/>
	</g>
	<g>
		<linearGradient id="SVGID_22_" gradientUnits="userSpaceOnUse" x1="229.3418" y1="918.4041" x2="1286.1368" y2="226.0211">
			<stop  offset="0" style="stop-color:#5FBB53"/>
			<stop  offset="1" style="stop-color:#3D90CE"/>
		</linearGradient>
		<path class="st22" d="M1061.7,354c-6.4-3.2-16.9-3.2-23.3,0l-41.8,20.9c-6.4,3.2-6.4,8.4,0,11.6l41.8,20.9
			c6.4,3.2,16.9,3.2,23.3,0l41.8-20.9c6.4-3.2,6.4-8.4,0-11.6L1061.7,354z"/>
	</g>
	<g>
		<linearGradient id="SVGID_23_" gradientUnits="userSpaceOnUse" x1="-142.5909" y1="483.4659" x2="914.2042" y2="-208.9171">
			<stop  offset="0" style="stop-color:#5FBB53"/>
			<stop  offset="1" style="stop-color:#3D90CE"/>
		</linearGradient>
		<path class="st23" d="M128.4,346.7c6.4-3.2,6.4-8.4,0-11.6l-41.8-20.9c-6.4-3.2-16.9-3.2-23.3,0l-41.8,20.9
			c-6.4,3.2-6.4,8.4,0,11.6l41.8,20.9c6.4,3.2,16.9,3.2,23.3,0L128.4,346.7z"/>
	</g>
	<g>
		<linearGradient id="SVGID_24_" gradientUnits="userSpaceOnUse" x1="-45.4095" y1="653.1773" x2="1011.3857" y2="-39.2057">
			<stop  offset="0" style="stop-color:#5FBB53"/>
			<stop  offset="1" style="stop-color:#3D90CE"/>
		</linearGradient>
		<path class="st24" d="M21.6,568.5c-6.4,3.2-6.4,8.4,0,11.6L63.4,601c6.4,3.2,16.9,3.2,23.3,0l41.8-20.9c6.4-3.2,6.4-8.4,0-11.6
			l-41.8-20.9c-6.4-3.2-16.9-3.2-23.3,0L21.6,568.5z"/>
	</g>
	<g>
		<linearGradient id="SVGID_25_" gradientUnits="userSpaceOnUse" x1="-174.6531" y1="427.4721" x2="882.142" y2="-264.9109">
			<stop  offset="0" style="stop-color:#5FBB53"/>
			<stop  offset="1" style="stop-color:#3D90CE"/>
		</linearGradient>
		<path class="st25" d="M128.4,269.7c6.4-3.2,6.4-8.4,0-11.6l-41.8-20.9c-6.4-3.2-16.9-3.2-23.3,0l-41.8,20.9
			c-6.4,3.2-6.4,8.4,0,11.6l41.8,20.9c6.4,3.2,16.9,3.2,23.3,0L128.4,269.7z"/>
	</g>
	<g>
		<linearGradient id="SVGID_26_" gradientUnits="userSpaceOnUse" x1="-66.2113" y1="600.3478" x2="990.5837" y2="-92.0351">
			<stop  offset="0" style="stop-color:#5FBB53"/>
			<stop  offset="1" style="stop-color:#3D90CE"/>
		</linearGradient>
		<path class="st26" d="M96.5,452.9c-6.4,3.2-6.4,8.4,0,11.6l41.8,20.9c6.4,3.2,16.9,3.2,23.3,0l41.8-20.9c6.4-3.2,6.4-8.4,0-11.6
			L161.6,432c-6.4-3.2-16.9-3.2-23.3,0L96.5,452.9z"/>
	</g>
	<g>
		<linearGradient id="SVGID_27_" gradientUnits="userSpaceOnUse" x1="-76.4965" y1="549.3687" x2="980.2986" y2="-143.0143">
			<stop  offset="0" style="stop-color:#5FBB53"/>
			<stop  offset="1" style="stop-color:#3D90CE"/>
		</linearGradient>
		<path class="st27" d="M353.4,308.5c6.4-3.2,6.4-8.4,0-11.6L311.6,276c-6.4-3.2-16.9-3.2-23.3,0l-41.8,20.9
			c-6.4,3.2-6.4,8.4,0,11.6l41.8,20.9c6.4,3.2,16.9,3.2,23.3,0L353.4,308.5z"/>
	</g>
	<g>
		<linearGradient id="SVGID_28_" gradientUnits="userSpaceOnUse" x1="-163.2306" y1="430.912" x2="893.5645" y2="-261.471">
			<stop  offset="0" style="stop-color:#5FBB53"/>
			<stop  offset="1" style="stop-color:#3D90CE"/>
		</linearGradient>
		<path class="st28" d="M96.5,219.9c-6.4,3.2-6.4,8.4,0,11.6l41.8,20.9c6.4,3.2,16.9,3.2,23.3,0l41.8-20.9c6.4-3.2,6.4-8.4,0-11.6
			L161.6,199c-6.4-3.2-16.9-3.2-23.3,0L96.5,219.9z"/>
	</g>
	<g>
		<linearGradient id="SVGID_29_" gradientUnits="userSpaceOnUse" x1="20.685" y1="719.0801" x2="1077.4801" y2="26.6971">
			<stop  offset="0" style="stop-color:#5FBB53"/>
			<stop  offset="1" style="stop-color:#3D90CE"/>
		</linearGradient>
		<path class="st29" d="M246.6,530.3c-6.4,3.2-6.4,8.4,0,11.6l41.8,20.9c6.4,3.2,16.9,3.2,23.3,0l41.8-20.9c6.4-3.2,6.4-8.4,0-11.6
			l-41.8-20.9c-6.4-3.2-16.9-3.2-23.3,0L246.6,530.3z"/>
	</g>
	<g>
		<linearGradient id="SVGID_30_" gradientUnits="userSpaceOnUse" x1="-98.6899" y1="543.6268" x2="958.1052" y2="-148.7562">
			<stop  offset="0" style="stop-color:#5FBB53"/>
			<stop  offset="1" style="stop-color:#3D90CE"/>
		</linearGradient>
		<path class="st30" d="M96.5,374.9c-6.4,3.2-6.4,8.4,0,11.6l41.8,20.9c6.4,3.2,16.9,3.2,23.3,0l41.8-20.9c6.4-3.2,6.4-8.4,0-11.6
			L161.6,354c-6.4-3.2-16.9-3.2-23.3,0L96.5,374.9z"/>
	</g>
	<g>
		<linearGradient id="SVGID_31_" gradientUnits="userSpaceOnUse" x1="31.7101" y1="721.8337" x2="1088.5051" y2="29.4507">
			<stop  offset="0" style="stop-color:#5FBB53"/>
			<stop  offset="1" style="stop-color:#3D90CE"/>
		</linearGradient>
		<path class="st31" d="M386.6,470.2c-6.4-3.2-16.9-3.2-23.3,0l-41.8,20.9c-6.4,3.2-6.4,8.4,0,11.6l41.8,20.9
			c6.4,3.2,16.9,3.2,23.3,0l41.8-20.9c6.4-3.2,6.4-8.4,0-11.6L386.6,470.2z"/>
	</g>
	<g>
		<linearGradient id="SVGID_32_" gradientUnits="userSpaceOnUse" x1="-11.5394" y1="662.8107" x2="1045.2557" y2="-29.5723">
			<stop  offset="0" style="stop-color:#5FBB53"/>
			<stop  offset="1" style="stop-color:#3D90CE"/>
		</linearGradient>
		<path class="st32" d="M353.4,464.5c6.4-3.2,6.4-8.4,0-11.6L311.6,432c-6.4-3.2-16.9-3.2-23.3,0l-41.8,20.9
			c-6.4,3.2-6.4,8.4,0,11.6l41.8,20.9c6.4,3.2,16.9,3.2,23.3,0L353.4,464.5z"/>
	</g>
	<g>
		<linearGradient id="SVGID_33_" gradientUnits="userSpaceOnUse" x1="78.0669" y1="687.2326" x2="1134.8621" y2="-5.1504">
			<stop  offset="0" style="stop-color:#5FBB53"/>
			<stop  offset="1" style="stop-color:#3D90CE"/>
		</linearGradient>
		<path class="st33" d="M953.4,154.5c6.4-3.2,6.4-8.4,0-11.6L911.6,122c-6.4-3.2-16.9-3.2-23.3,0l-41.8,20.9
			c-6.4,3.2-6.4,8.4,0,11.6l41.8,20.9c6.4,3.2,16.9,3.2,23.3,0L953.4,154.5z"/>
	</g>
	<g>
		<linearGradient id="SVGID_34_" gradientUnits="userSpaceOnUse" x1="88.8507" y1="689.5492" x2="1145.6458" y2="-2.8338">
			<stop  offset="0" style="stop-color:#5FBB53"/>
			<stop  offset="1" style="stop-color:#3D90CE"/>
		</linearGradient>
		<path class="st34" d="M1028.5,114.7c6.4-3.2,6.4-8.4,0-11.6l-41.8-20.9c-6.4-3.2-16.9-3.2-23.3,0l-41.8,20.9
			c-6.4,3.2-6.4,8.4,0,11.6l41.8,20.9c6.4,3.2,16.9,3.2,23.3,0L1028.5,114.7z"/>
	</g>
	<g>
		<linearGradient id="SVGID_35_" gradientUnits="userSpaceOnUse" x1="-63.3969" y1="506.2469" x2="993.3982" y2="-186.1361">
			<stop  offset="0" style="stop-color:#5FBB53"/>
			<stop  offset="1" style="stop-color:#3D90CE"/>
		</linearGradient>
		<path class="st35" d="M653.3,77.5c6.4-3.2,6.4-8.4,0-11.6L611.5,45c-6.4-3.2-16.9-3.2-23.3,0l-41.8,20.9c-6.4,3.2-6.4,8.4,0,11.6
			l41.8,20.9c6.4,3.2,16.9,3.2,23.3,0L653.3,77.5z"/>
	</g>
	<g>
		<linearGradient id="SVGID_36_" gradientUnits="userSpaceOnUse" x1="-118.011" y1="443.8502" x2="938.7841" y2="-248.5329">
			<stop  offset="0" style="stop-color:#5FBB53"/>
			<stop  offset="1" style="stop-color:#3D90CE"/>
		</linearGradient>
		<path class="st36" d="M503.4,77.5c6.4-3.2,6.4-8.4,0-11.6L461.6,45c-6.4-3.2-16.9-3.2-23.3,0l-41.8,20.9c-6.4,3.2-6.4,8.4,0,11.6
			l41.8,20.9c6.4,3.2,16.9,3.2,23.3,0L503.4,77.5z"/>
	</g>
	<g>
		<linearGradient id="SVGID_37_" gradientUnits="userSpaceOnUse" x1="-172.6702" y1="381.4019" x2="884.1249" y2="-310.9812">
			<stop  offset="0" style="stop-color:#5FBB53"/>
			<stop  offset="1" style="stop-color:#3D90CE"/>
		</linearGradient>
		<path class="st37" d="M353.4,77.5c6.4-3.2,6.4-8.4,0-11.6L311.6,45c-6.4-3.2-16.9-3.2-23.3,0l-41.8,20.9c-6.4,3.2-6.4,8.4,0,11.6
			l41.8,20.9c6.4,3.2,16.9,3.2,23.3,0L353.4,77.5z"/>
	</g>
	<g>
		<linearGradient id="SVGID_38_" gradientUnits="userSpaceOnUse" x1="-129.8499" y1="439.6831" x2="926.9453" y2="-252.6999">
			<stop  offset="0" style="stop-color:#5FBB53"/>
			<stop  offset="1" style="stop-color:#3D90CE"/>
		</linearGradient>
		<path class="st38" d="M428.4,114.7c6.4-3.2,6.4-8.4,0-11.6l-41.8-20.9c-6.4-3.2-16.9-3.2-23.3,0l-41.8,20.9
			c-6.4,3.2-6.4,8.4,0,11.6l41.8,20.9c6.4,3.2,16.9,3.2,23.3,0L428.4,114.7z"/>
	</g>
	<g>
		<linearGradient id="SVGID_39_" gradientUnits="userSpaceOnUse" x1="-74.7166" y1="502.673" x2="982.0785" y2="-189.71">
			<stop  offset="0" style="stop-color:#5FBB53"/>
			<stop  offset="1" style="stop-color:#3D90CE"/>
		</linearGradient>
		<path class="st39" d="M579.7,114.7c6.4-3.2,6.4-8.4,0-11.6l-41.8-20.9c-6.4-3.2-16.9-3.2-23.3,0l-41.8,20.9
			c-6.4,3.2-6.4,8.4,0,11.6l41.8,20.9c6.4,3.2,16.9,3.2,23.3,0L579.7,114.7z"/>
	</g>
	<g>
		<linearGradient id="SVGID_40_" gradientUnits="userSpaceOnUse" x1="-31.3348" y1="562.2408" x2="1025.4603" y2="-130.1423">
			<stop  offset="0" style="stop-color:#5FBB53"/>
			<stop  offset="1" style="stop-color:#3D90CE"/>
		</linearGradient>
		<path class="st40" d="M653.3,154.5c6.4-3.2,6.4-8.4,0-11.6L611.5,122c-6.4-3.2-16.9-3.2-23.3,0l-41.8,20.9
			c-6.4,3.2-6.4,8.4,0,11.6l41.8,20.9c6.4,3.2,16.9,3.2,23.3,0L653.3,154.5z"/>
	</g>
	<g>
		<linearGradient id="SVGID_41_" gradientUnits="userSpaceOnUse" x1="100.6767" y1="693.7017" x2="1157.4719" y2="1.3186">
			<stop  offset="0" style="stop-color:#5FBB53"/>
			<stop  offset="1" style="stop-color:#3D90CE"/>
		</linearGradient>
		<path class="st41" d="M1103.5,77.5c6.4-3.2,6.4-8.4,0-11.6L1061.7,45c-6.4-3.2-16.9-3.2-23.3,0l-41.8,20.9
			c-6.4,3.2-6.4,8.4,0,11.6l41.8,20.9c6.4,3.2,16.9,3.2,23.3,0L1103.5,77.5z"/>
	</g>
	<g>
		<linearGradient id="SVGID_42_" gradientUnits="userSpaceOnUse" x1="161.7852" y1="899.5082" x2="1218.5803" y2="207.1252">
			<stop  offset="0" style="stop-color:#5FBB53"/>
			<stop  offset="1" style="stop-color:#3D90CE"/>
		</linearGradient>
		<path class="st42" d="M546.4,606.7c-6.4,3.2-6.4,8.4,0,11.6l41.8,20.9c6.4,3.2,16.9,3.2,23.3,0l41.8-20.9c6.4-3.2,6.4-8.4,0-11.6
			l-41.8-20.9c-6.4-3.2-16.9-3.2-23.3,0L546.4,606.7z"/>
	</g>
	<g>
		<linearGradient id="SVGID_43_" gradientUnits="userSpaceOnUse" x1="52.5119" y1="774.6631" x2="1109.307" y2="82.2801">
			<stop  offset="0" style="stop-color:#5FBB53"/>
			<stop  offset="1" style="stop-color:#3D90CE"/>
		</linearGradient>
		<path class="st43" d="M246.6,606.7c-6.4,3.2-6.4,8.4,0,11.6l41.8,20.9c6.4,3.2,16.9,3.2,23.3,0l41.8-20.9c6.4-3.2,6.4-8.4,0-11.6
			l-41.8-20.9c-6.4-3.2-16.9-3.2-23.3,0L246.6,606.7z"/>
	</g>
	<g>
		<linearGradient id="SVGID_44_" gradientUnits="userSpaceOnUse" x1="96.7848" y1="835.4811" x2="1153.58" y2="143.0981">
			<stop  offset="0" style="stop-color:#5FBB53"/>
			<stop  offset="1" style="stop-color:#3D90CE"/>
		</linearGradient>
		<path class="st44" d="M321.6,647.4c-6.4,3.2-6.4,8.4,0,11.6l41.8,20.9c6.4,3.2,16.9,3.2,23.3,0l41.8-20.9c6.4-3.2,6.4-8.4,0-11.6
			l-41.8-20.9c-6.4-3.2-16.9-3.2-23.3,0L321.6,647.4z"/>
	</g>
	<g>
		<linearGradient id="SVGID_45_" gradientUnits="userSpaceOnUse" x1="151.9181" y1="898.4711" x2="1208.7131" y2="206.0881">
			<stop  offset="0" style="stop-color:#5FBB53"/>
			<stop  offset="1" style="stop-color:#3D90CE"/>
		</linearGradient>
		<path class="st45" d="M472.8,647.4c-6.4,3.2-6.4,8.4,0,11.6l41.8,20.9c6.4,3.2,16.9,3.2,23.3,0l41.8-20.9c6.4-3.2,6.4-8.4,0-11.6
			l-41.8-20.9c-6.4-3.2-16.9-3.2-23.3,0L472.8,647.4z"/>
	</g>
	<g>
		<linearGradient id="SVGID_46_" gradientUnits="userSpaceOnUse" x1="237.3169" y1="1014.8666" x2="1294.1119" y2="322.4836">
			<stop  offset="0" style="stop-color:#5FBB53"/>
			<stop  offset="1" style="stop-color:#3D90CE"/>
		</linearGradient>
		<path class="st46" d="M621.6,722.3c-6.4,3.2-6.4,8.4,0,11.6l41.8,20.9c6.4,3.2,16.9,3.2,23.3,0l41.8-20.9c6.4-3.2,6.4-8.4,0-11.6
			l-41.8-20.9c-6.4-3.2-16.9-3.2-23.3,0L621.6,722.3z"/>
	</g>
	<g>
		<linearGradient id="SVGID_47_" gradientUnits="userSpaceOnUse" x1="291.976" y1="1077.3149" x2="1348.7711" y2="384.9319">
			<stop  offset="0" style="stop-color:#5FBB53"/>
			<stop  offset="1" style="stop-color:#3D90CE"/>
		</linearGradient>
		<path class="st47" d="M771.6,722.3c-6.4,3.2-6.4,8.4,0,11.6l41.8,20.9c6.4,3.2,16.9,3.2,23.3,0l41.8-20.9c6.4-3.2,6.4-8.4,0-11.6
			l-41.8-20.9c-6.4-3.2-16.9-3.2-23.3,0L771.6,722.3z"/>
	</g>
	<g>
		<linearGradient id="SVGID_48_" gradientUnits="userSpaceOnUse" x1="346.648" y1="1139.7778" x2="1403.4431" y2="447.3948">
			<stop  offset="0" style="stop-color:#5FBB53"/>
			<stop  offset="1" style="stop-color:#3D90CE"/>
		</linearGradient>
		<path class="st48" d="M921.6,722.3c-6.4,3.2-6.4,8.4,0,11.6l41.8,20.9c6.4,3.2,16.9,3.2,23.3,0l41.8-20.9c6.4-3.2,6.4-8.4,0-11.6
			l-41.8-20.9c-6.4-3.2-16.9-3.2-23.3,0L921.6,722.3z"/>
	</g>
	<g>
		<linearGradient id="SVGID_49_" gradientUnits="userSpaceOnUse" x1="127.9602" y1="889.9263" x2="1184.7552" y2="197.5433">
			<stop  offset="0" style="stop-color:#5FBB53"/>
			<stop  offset="1" style="stop-color:#3D90CE"/>
		</linearGradient>
		<path class="st49" d="M321.6,722.3c-6.4,3.2-6.4,8.4,0,11.6l41.8,20.9c6.4,3.2,16.9,3.2,23.3,0l41.8-20.9c6.4-3.2,6.4-8.4,0-11.6
			l-41.8-20.9c-6.4-3.2-16.9-3.2-23.3,0L321.6,722.3z"/>
	</g>
	<g>
		<linearGradient id="SVGID_50_" gradientUnits="userSpaceOnUse" x1="139.8976" y1="894.2578" x2="1196.6927" y2="201.8747">
			<stop  offset="0" style="stop-color:#5FBB53"/>
			<stop  offset="1" style="stop-color:#3D90CE"/>
		</linearGradient>
		<path class="st50" d="M396.6,685.3c-6.4,3.2-6.4,8.4,0,11.6l41.8,20.9c6.4,3.2,16.9,3.2,23.3,0l41.8-20.9c6.4-3.2,6.4-8.4,0-11.6
			l-41.8-20.9c-6.4-3.2-16.9-3.2-23.3,0L396.6,685.3z"/>
	</g>
	<g>
		<linearGradient id="SVGID_51_" gradientUnits="userSpaceOnUse" x1="194.6508" y1="956.8134" x2="1251.4458" y2="264.4304">
			<stop  offset="0" style="stop-color:#5FBB53"/>
			<stop  offset="1" style="stop-color:#3D90CE"/>
		</linearGradient>
		<path class="st51" d="M546.8,685.3c-6.4,3.2-6.4,8.4,0,11.6l41.8,20.9c6.4,3.2,16.9,3.2,23.3,0l41.8-20.9c6.4-3.2,6.4-8.4,0-11.6
			l-41.8-20.9c-6.4-3.2-16.9-3.2-23.3,0L546.8,685.3z"/>
	</g>
	<g>
		<linearGradient id="SVGID_52_" gradientUnits="userSpaceOnUse" x1="250.3134" y1="1020.4081" x2="1307.1084" y2="328.0251">
			<stop  offset="0" style="stop-color:#5FBB53"/>
			<stop  offset="1" style="stop-color:#3D90CE"/>
		</linearGradient>
		<path class="st52" d="M699.6,685.3c-6.4,3.2-6.4,8.4,0,11.6l41.8,20.9c6.4,3.2,16.9,3.2,23.3,0l41.8-20.9c6.4-3.2,6.4-8.4,0-11.6
			l-41.8-20.9c-6.4-3.2-16.9-3.2-23.3,0L699.6,685.3z"/>
	</g>
	<g>
		<linearGradient id="SVGID_53_" gradientUnits="userSpaceOnUse" x1="358.5726" y1="1144.0946" x2="1415.3677" y2="451.7116">
			<stop  offset="0" style="stop-color:#5FBB53"/>
			<stop  offset="1" style="stop-color:#3D90CE"/>
		</linearGradient>
		<path class="st53" d="M996.6,685.3c-6.4,3.2-6.4,8.4,0,11.6l41.8,20.9c6.4,3.2,16.9,3.2,23.3,0l41.8-20.9c6.4-3.2,6.4-8.4,0-11.6
			l-41.8-20.9c-6.4-3.2-16.9-3.2-23.3,0L996.6,685.3z"/>
	</g>
	<g>
		<linearGradient id="SVGID_54_" gradientUnits="userSpaceOnUse" x1="314.6415" y1="1083.8735" x2="1371.4366" y2="391.4905">
			<stop  offset="0" style="stop-color:#5FBB53"/>
			<stop  offset="1" style="stop-color:#3D90CE"/>
		</linearGradient>
		<path class="st54" d="M921.6,645.4c-6.4,3.2-6.4,8.4,0,11.6l41.8,20.9c6.4,3.2,16.9,3.2,23.3,0l41.8-20.9c6.4-3.2,6.4-8.4,0-11.6
			l-41.8-20.9c-6.4-3.2-16.9-3.2-23.3,0L921.6,645.4z"/>
	</g>
	<g>
		<linearGradient id="SVGID_55_" gradientUnits="userSpaceOnUse" x1="271.187" y1="1024.5" x2="1327.9821" y2="332.117">
			<stop  offset="0" style="stop-color:#5FBB53"/>
			<stop  offset="1" style="stop-color:#3D90CE"/>
		</linearGradient>
		<path class="st55" d="M846.6,606.7c-6.4,3.2-6.4,8.4,0,11.6l41.8,20.9c6.4,3.2,16.9,3.2,23.3,0l41.8-20.9c6.4-3.2,6.4-8.4,0-11.6
			l-41.8-20.9c-6.4-3.2-16.9-3.2-23.3,0L846.6,606.7z"/>
	</g>
</g>
</svg>
